<svg xmlns="http://www.w3.org/2000/svg" viewBox="0 0 128.75 164.99"><defs><style>.cls-1{fill:#f2f2f2;}.cls-2{fill:#ffa69e;}.cls-3{fill:#5e6472;}</style></defs><g id="Layer_2" data-name="Layer 2"><g id="bed"><path class="cls-1" d="M6.45.5H122.29a6,6,0,0,1,6,6V158.54a6,6,0,0,1-6,6H6.46a6,6,0,0,1-6-6V6.45A6,6,0,0,1,6.45.5Z"/><path d="M122.29,1a5.46,5.46,0,0,1,5.46,5.45V158.54a5.46,5.46,0,0,1-5.46,5.45H6.45A5.46,5.46,0,0,1,1,158.54V6.45A5.46,5.46,0,0,1,6.45,1H122.29m0-1H6.45A6.45,6.45,0,0,0,0,6.45V158.54A6.45,6.45,0,0,0,6.45,165H122.29a6.46,6.46,0,0,0,6.46-6.45V6.45A6.46,6.46,0,0,0,122.29,0Z"/><path class="cls-2" d="M7.18,164.47a6.66,6.66,0,0,1-6.65-6.66v-121H128.22v121a6.66,6.66,0,0,1-6.65,6.66Z"/><path d="M127.69,37.3V157.81a6.13,6.13,0,0,1-6.12,6.13H7.18a6.14,6.14,0,0,1-6.13-6.13V37.3H127.69m1.06-1H0V157.81A7.17,7.17,0,0,0,7.18,165H121.57a7.18,7.18,0,0,0,7.18-7.18V36.25Z"/><path class="cls-3" d="M35.3,43.35a104.67,104.67,0,0,1-20.88-2.1V19.3a104.85,104.85,0,0,1,41.76,0v22A104.6,104.6,0,0,1,35.3,43.35Z"/><path d="M35.3,17.7a104.86,104.86,0,0,1,20.38,2V40.84a104.09,104.09,0,0,1-20.38,2,104.17,104.17,0,0,1-20.38-2V19.71a104.94,104.94,0,0,1,20.38-2m0-1a105.54,105.54,0,0,0-21.38,2.19V41.66A105.54,105.54,0,0,0,35.3,43.85a105.4,105.4,0,0,0,21.38-2.19V18.89A105.4,105.4,0,0,0,35.3,16.7Z"/><path class="cls-3" d="M93.44,43.35a104.67,104.67,0,0,1-20.88-2.1V19.3a104.85,104.85,0,0,1,41.76,0v22A104.6,104.6,0,0,1,93.44,43.35Z"/><path d="M93.44,17.7a104.86,104.86,0,0,1,20.38,2V40.84a104.09,104.09,0,0,1-20.38,2,104.17,104.17,0,0,1-20.38-2V19.71a104.94,104.94,0,0,1,20.38-2m0-1a105.54,105.54,0,0,0-21.38,2.19V41.66a105.54,105.54,0,0,0,21.38,2.19,105.4,105.4,0,0,0,21.38-2.19V18.89A105.4,105.4,0,0,0,93.44,16.7Z"/></g></g></svg>