<svg xmlns="http://www.w3.org/2000/svg" viewBox="0 0 135.72 75.62"><defs><style>.cls-1{fill:#1d0733;}</style></defs><g id="Layer_2" data-name="Layer 2"><g id="firstcup"><path class="cls-1" d="M132.72,13.52c-3.05-3.06-8.13-3.66-15.89-3.66V0H0V49.46C0,59.78,7.13,69.08,18.52,75.62H98.31c11.39-6.54,18.52-15.84,18.52-26.16V47.62c5.16,0,18.87-8.58,18.88-18.88V26.92C135.74,20.91,135.76,16.58,132.72,13.52Zm-4,13.36v1.86c0,3.3-3.12,6.36-5,7.9a20.61,20.61,0,0,1-6.91,4V16.86c4,0,9.5.17,10.93,1.6C128.75,19.45,128.73,22.73,128.71,26.88Z"/></g></g></svg>