<svg xmlns="http://www.w3.org/2000/svg" viewBox="0 0 164.09 91.43"><defs><style>.cls-1{fill:#1d0733;}.cls-2{fill:#fff;stroke:#1d0733;stroke-width:2px;}.cls-2,.cls-3{stroke-miterlimit:10;}.cls-3{fill:none;stroke:#000;stroke-width:3px;}</style></defs><g id="Layer_2" data-name="Layer 2"><g id="decaf"><ellipse class="cls-1" cx="79.03" cy="89.14" rx="79.03" ry="2.29"/><path class="cls-2" d="M159.57,16.87c-3.57-3.6-9.55-4.3-18.65-4.3V1H3.8V59.05c0,12.11,8.37,23,21.74,30.7h93.64c13.37-7.67,21.74-18.59,21.74-30.7V56.89c6.06,0,22.14-10.07,22.15-22.16V32.59C163.12,25.55,163.14,20.46,159.57,16.87Zm-4.7,15.68v2.18c0,3.87-3.65,7.47-5.83,9.27a24,24,0,0,1-8.11,4.65V20.79c4.7,0,11.15.19,12.83,1.87C154.91,23.83,154.89,27.68,154.87,32.55Z"/><ellipse class="cls-1" cx="75" cy="60.93" rx="13.17" ry="6.73"/><path class="cls-3" d="M33.74,30a16.16,16.16,0,0,1,23.91,0"/><path class="cls-3" d="M91.18,30a16.16,16.16,0,0,1,23.91,0"/></g></g></svg>