<svg xmlns="http://www.w3.org/2000/svg" viewBox="0 0 192.12 95.72"><defs><style>.cls-1,.cls-2{fill:none;}.cls-1,.cls-2,.cls-3,.cls-4,.cls-5,.cls-6,.cls-7,.cls-8{stroke:#000;stroke-miterlimit:10;}.cls-1{stroke-width:5px;}.cls-2{stroke-width:3px;}.cls-3{fill:#c69c6d;}.cls-3,.cls-8{stroke-width:1.14px;}.cls-4,.cls-5,.cls-6,.cls-7,.cls-8{fill:#e6e6e6;}.cls-4{stroke-width:1.02px;}.cls-5{stroke-width:1.06px;}.cls-6{stroke-width:1.09px;}.cls-7{stroke-width:1.13px;}</style></defs><g id="Layer_2" data-name="Layer 2"><g id="pourover"><path class="cls-1" d="M62.89,87,37.51,84.4a10.44,10.44,0,0,1-9.26-8.86L23.6,44.28a13.37,13.37,0,0,0-6.06-9.34L1.08,27.09"/><path class="cls-2" d="M141.59,46.36s7.11-24.14,16.85-26.19c13.95-2.93,16.24,22,16.24,22"/><polygon class="cls-3" points="91.74 0.57 107.8 0.57 104.8 27.09 94.74 27.09 91.74 0.57"/><rect class="cls-4" x="55.18" y="13.83" width="89.19" height="16.26" rx="5.47"/><rect class="cls-5" x="52.26" y="30.09" width="95.02" height="16.26" rx="5.65"/><rect class="cls-6" x="48.89" y="46.36" width="101.75" height="16.26" rx="5.84"/><rect class="cls-7" x="45.73" y="62.62" width="108.08" height="16.26" rx="6.02"/><rect class="cls-8" x="43.95" y="78.88" width="111.64" height="16.26" rx="6.12"/><rect class="cls-3" x="171.34" y="23.31" width="11.96" height="50.82" transform="translate(-6.12 61.54) rotate(-19.36)"/></g></g></svg>